<mxGraphModel dx="1646" dy="1286" grid="1" gridSize="10" guides="1" tooltips="1" connect="1" arrows="1" fold="1" page="1" pageScale="1" pageWidth="1200" pageHeight="1920" math="0" shadow="0"><root><mxCell id="0"/><mxCell id="1" parent="0"/><mxCell id="ccXTip0eo8AdXVqcrn12-6" value="" style="edgeStyle=orthogonalEdgeStyle;curved=1;orthogonalLoop=1;jettySize=auto;html=1;fontSize=15;" parent="1" source="ccXTip0eo8AdXVqcrn12-1" target="ccXTip0eo8AdXVqcrn12-5" edge="1"><mxGeometry relative="1" as="geometry"/></mxCell><mxCell id="ccXTip0eo8AdXVqcrn12-9" style="edgeStyle=orthogonalEdgeStyle;curved=1;orthogonalLoop=1;jettySize=auto;html=1;exitX=0.5;exitY=1;exitDx=0;exitDy=0;entryX=0.5;entryY=0;entryDx=0;entryDy=0;fontSize=15;" parent="1" source="ccXTip0eo8AdXVqcrn12-1" target="ccXTip0eo8AdXVqcrn12-2" edge="1"><mxGeometry relative="1" as="geometry"/></mxCell><mxCell id="ccXTip0eo8AdXVqcrn12-14" style="edgeStyle=orthogonalEdgeStyle;curved=1;orthogonalLoop=1;jettySize=auto;html=1;exitX=1;exitY=0.5;exitDx=0;exitDy=0;entryX=0;entryY=0.5;entryDx=0;entryDy=0;fontSize=15;" parent="1" source="ccXTip0eo8AdXVqcrn12-1" target="ccXTip0eo8AdXVqcrn12-12" edge="1"><mxGeometry relative="1" as="geometry"/></mxCell><mxCell id="ccXTip0eo8AdXVqcrn12-21" style="edgeStyle=orthogonalEdgeStyle;rounded=0;orthogonalLoop=1;jettySize=auto;html=1;exitX=0.5;exitY=0;exitDx=0;exitDy=0;entryX=0.5;entryY=1;entryDx=0;entryDy=0;fontSize=15;" parent="1" source="ccXTip0eo8AdXVqcrn12-1" target="ccXTip0eo8AdXVqcrn12-18" edge="1"><mxGeometry relative="1" as="geometry"/></mxCell><mxCell id="ccXTip0eo8AdXVqcrn12-22" style="rounded=0;orthogonalLoop=1;jettySize=auto;html=1;exitX=1;exitY=0;exitDx=0;exitDy=0;entryX=0;entryY=1;entryDx=0;entryDy=0;fontSize=15;" parent="1" source="ccXTip0eo8AdXVqcrn12-1" target="ccXTip0eo8AdXVqcrn12-19" edge="1"><mxGeometry relative="1" as="geometry"/></mxCell><mxCell id="ccXTip0eo8AdXVqcrn12-26" style="edgeStyle=none;rounded=1;orthogonalLoop=1;jettySize=auto;html=1;exitX=0;exitY=0;exitDx=0;exitDy=0;entryX=1;entryY=1;entryDx=0;entryDy=0;fontSize=15;" parent="1" source="ccXTip0eo8AdXVqcrn12-1" target="ccXTip0eo8AdXVqcrn12-25" edge="1"><mxGeometry relative="1" as="geometry"/></mxCell><mxCell id="ccXTip0eo8AdXVqcrn12-1" value="&lt;font style=&quot;font-size: 17px;&quot;&gt;Stakeholders&lt;/font&gt;" style="ellipse;whiteSpace=wrap;html=1;gradientColor=none;shadow=0;sketch=0;" parent="1" vertex="1"><mxGeometry x="621" y="300" width="120" height="80" as="geometry"/></mxCell><mxCell id="ccXTip0eo8AdXVqcrn12-2" value="&lt;font style=&quot;font-size: 15px;&quot;&gt;Shareholder&lt;br&gt;&lt;/font&gt;" style="ellipse;whiteSpace=wrap;html=1;gradientColor=none;shadow=0;sketch=0;" parent="1" vertex="1"><mxGeometry x="620" y="480" width="120" height="80" as="geometry"/></mxCell><mxCell id="ccXTip0eo8AdXVqcrn12-5" value="&lt;font style=&quot;font-size: 15px;&quot;&gt;Employees&lt;/font&gt;" style="ellipse;whiteSpace=wrap;html=1;gradientColor=none;shadow=0;sketch=0;" parent="1" vertex="1"><mxGeometry x="400" y="300" width="120" height="80" as="geometry"/></mxCell><mxCell id="ccXTip0eo8AdXVqcrn12-10" value="" style="edgeStyle=none;orthogonalLoop=1;jettySize=auto;html=1;fontSize=15;curved=1;exitX=0;exitY=1;exitDx=0;exitDy=0;entryX=1;entryY=0;entryDx=0;entryDy=0;" parent="1" source="ccXTip0eo8AdXVqcrn12-1" target="ccXTip0eo8AdXVqcrn12-11" edge="1"><mxGeometry width="80" relative="1" as="geometry"><mxPoint x="623" y="400" as="sourcePoint"/><mxPoint x="523" y="480" as="targetPoint"/><Array as="points"/></mxGeometry></mxCell><mxCell id="ccXTip0eo8AdXVqcrn12-11" value="&lt;span style=&quot;font-size: 15px;&quot;&gt;Suppliers&lt;/span&gt;" style="ellipse;whiteSpace=wrap;html=1;gradientColor=none;shadow=0;sketch=0;" parent="1" vertex="1"><mxGeometry x="400" y="480" width="120" height="80" as="geometry"/></mxCell><mxCell id="ccXTip0eo8AdXVqcrn12-12" value="&lt;font style=&quot;font-size: 15px;&quot;&gt;General public&lt;/font&gt;" style="ellipse;whiteSpace=wrap;html=1;gradientColor=none;shadow=0;sketch=0;" parent="1" vertex="1"><mxGeometry x="840" y="300" width="120" height="80" as="geometry"/></mxCell><mxCell id="ccXTip0eo8AdXVqcrn12-13" value="&lt;span style=&quot;font-size: 15px;&quot;&gt;Managers&lt;br&gt;&lt;/span&gt;" style="ellipse;whiteSpace=wrap;html=1;gradientColor=none;shadow=0;sketch=0;" parent="1" vertex="1"><mxGeometry x="840" y="480" width="120" height="80" as="geometry"/></mxCell><mxCell id="ccXTip0eo8AdXVqcrn12-17" value="" style="edgeStyle=none;orthogonalLoop=1;jettySize=auto;html=1;rounded=0;fontSize=15;exitX=1;exitY=1;exitDx=0;exitDy=0;entryX=0;entryY=0;entryDx=0;entryDy=0;" parent="1" source="ccXTip0eo8AdXVqcrn12-1" target="ccXTip0eo8AdXVqcrn12-13" edge="1"><mxGeometry width="80" relative="1" as="geometry"><mxPoint x="773" y="470" as="sourcePoint"/><mxPoint x="853" y="470" as="targetPoint"/><Array as="points"/></mxGeometry></mxCell><mxCell id="ccXTip0eo8AdXVqcrn12-18" value="&lt;font style=&quot;font-size: 15px;&quot;&gt;Owners&lt;/font&gt;" style="ellipse;whiteSpace=wrap;html=1;gradientColor=none;shadow=0;sketch=0;" parent="1" vertex="1"><mxGeometry x="621" y="120" width="120" height="80" as="geometry"/></mxCell><mxCell id="ccXTip0eo8AdXVqcrn12-19" value="&lt;font style=&quot;font-size: 15px&quot;&gt;Government&lt;br&gt;&lt;/font&gt;" style="ellipse;whiteSpace=wrap;html=1;gradientColor=none;shadow=0;sketch=0;" parent="1" vertex="1"><mxGeometry x="840" y="120" width="120" height="80" as="geometry"/></mxCell><mxCell id="ccXTip0eo8AdXVqcrn12-25" value="&lt;font style=&quot;font-size: 15px;&quot;&gt;Customers&lt;br&gt;&lt;/font&gt;" style="ellipse;whiteSpace=wrap;html=1;gradientColor=none;shadow=0;sketch=0;" parent="1" vertex="1"><mxGeometry x="400" y="120" width="120" height="80" as="geometry"/></mxCell><mxCell id="2" value="An individual or group of individuals who purchases products or services from a business" style="text;html=1;strokeColor=none;fillColor=none;align=center;verticalAlign=middle;whiteSpace=wrap;rounded=0;" parent="1" vertex="1"><mxGeometry x="220" y="125" width="136" height="70" as="geometry"/></mxCell><mxCell id="4" value="An individual or group of individuals who works for a business" style="text;html=1;strokeColor=none;fillColor=none;align=center;verticalAlign=middle;whiteSpace=wrap;rounded=0;" parent="1" vertex="1"><mxGeometry x="220" y="305" width="136" height="70" as="geometry"/></mxCell><mxCell id="5" value="An individual or business who turns a profit by selling raw materials to other businesses" style="text;html=1;strokeColor=none;fillColor=none;align=center;verticalAlign=middle;whiteSpace=wrap;rounded=0;" parent="1" vertex="1"><mxGeometry x="230" y="485" width="136" height="70" as="geometry"/></mxCell><mxCell id="6" value="The governing body of the country in which the business is situated in.&amp;nbsp;" style="text;html=1;strokeColor=none;fillColor=none;align=center;verticalAlign=middle;whiteSpace=wrap;rounded=0;" parent="1" vertex="1"><mxGeometry x="990" y="125" width="136" height="70" as="geometry"/></mxCell><mxCell id="7" value="&lt;div&gt;A group of individuals that are able to purchase a business' products or services&lt;/div&gt;" style="text;html=1;strokeColor=none;fillColor=none;align=center;verticalAlign=middle;whiteSpace=wrap;rounded=0;" parent="1" vertex="1"><mxGeometry x="990" y="305" width="136" height="70" as="geometry"/></mxCell><mxCell id="8" value="An employee who has the job of ensuring that day-to-day tasks are completed" style="text;html=1;strokeColor=none;fillColor=none;align=center;verticalAlign=middle;whiteSpace=wrap;rounded=0;" parent="1" vertex="1"><mxGeometry x="990" y="485" width="136" height="70" as="geometry"/></mxCell><mxCell id="10" value="An individual or business who turns a profit by selling raw materials to other businesses" style="text;html=1;strokeColor=none;fillColor=none;align=center;verticalAlign=middle;whiteSpace=wrap;rounded=0;" parent="1" vertex="1"><mxGeometry x="613" y="590" width="136" height="70" as="geometry"/></mxCell><mxCell id="12" value="An individual or business who turns a profit by selling raw materials to other businesses" style="text;html=1;strokeColor=none;fillColor=none;align=center;verticalAlign=middle;whiteSpace=wrap;rounded=0;" parent="1" vertex="1"><mxGeometry x="613" y="20" width="136" height="70" as="geometry"/></mxCell></root></mxGraphModel>